<?xml version="1.0" standalone="no"?>
<!DOCTYPE svg PUBLIC "-//W3C//DTD SVG 20010904//EN"
 "http://www.w3.org/TR/2001/REC-SVG-20010904/DTD/svg10.dtd">
<svg version="1.0" xmlns="http://www.w3.org/2000/svg"
 width="208.000000pt" height="100.000000pt" viewBox="0 0 208.000000 100.000000"
 preserveAspectRatio="xMidYMid meet">

<g transform="translate(0.000000,100.000000) scale(0.100000,-0.100000)"
fill="#000000" stroke="none">
<path d="M706 467 c-25 -30 -46 -62 -46 -71 0 -23 -16 -20 -56 11 -45 34 -66
36 -139 9 -58 -21 -60 -23 -58 -55 1 -19 7 -37 13 -41 7 -4 -5 -9 -29 -12 -39
-3 -42 -2 -52 29 -30 90 -177 107 -297 33 l-33 -20 28 -51 c15 -28 37 -54 48
-59 14 -5 36 -42 65 -110 24 -55 47 -103 51 -105 3 -3 28 3 54 11 l47 17 -6
40 c-7 39 -6 40 11 25 27 -24 68 -32 105 -19 22 8 34 8 36 1 4 -11 61 -14 86
-4 10 4 16 18 16 40 0 19 2 34 5 34 3 0 41 -18 85 -40 44 -22 84 -40 90 -40 5
0 10 21 10 46 0 25 4 43 9 40 5 -3 26 11 47 31 23 21 31 33 19 28 -105 -41
-132 -40 -165 2 -28 36 -25 70 9 104 33 33 93 40 127 15 18 -14 18 -16 -21
-55 -41 -43 -41 -48 -1 -30 19 9 29 9 40 0 11 -9 16 -9 22 0 4 8 3 9 -4 5 -16
-9 -15 16 0 50 11 25 10 29 -21 54 -31 27 -32 28 -12 35 25 8 26 17 7 54 -30
57 -40 56 -90 -2z m60 -9 c8 -13 -30 -48 -53 -48 -11 0 -9 7 7 30 23 32 35 37
46 18z m-495 -91 c28 -19 35 -30 37 -65 3 -38 -1 -47 -32 -78 l-35 -35 13 -52
c13 -46 12 -53 -2 -65 -9 -6 -21 -12 -26 -12 -6 0 -33 50 -60 110 -34 79 -53
110 -66 110 -15 0 -40 37 -40 60 0 4 19 15 43 24 88 32 124 32 168 3z m239 -1
c0 -37 13 -38 35 -5 11 16 23 29 26 29 3 0 16 -11 29 -25 l24 -25 -33 -34
c-32 -33 -35 -56 -6 -56 8 0 30 -13 48 -30 19 -17 42 -30 51 -30 19 0 31 -23
23 -45 -5 -11 -22 -7 -86 25 -45 22 -85 40 -91 40 -5 0 -10 -20 -10 -45 0 -38
-3 -45 -19 -45 -25 0 -30 16 -18 63 8 30 6 46 -7 73 -9 19 -16 50 -16 69 0 19
-4 35 -10 35 -17 0 -11 18 8 23 41 11 52 7 52 -17z m-56 -108 c9 -12 16 -33
16 -45 0 -32 -49 -82 -86 -89 -67 -13 -100 75 -49 130 32 35 96 37 119 4z"/>
<path d="M214 314 c-17 -7 4 -84 22 -84 21 0 40 48 27 68 -11 18 -30 24 -49
16z"/>
<path d="M363 244 c-14 -38 32 -67 61 -39 20 21 22 42 1 25 -19 -16 -49 -5
-41 15 3 8 1 15 -5 15 -5 0 -12 -7 -16 -16z"/>
<path d="M1472 378 c-27 -51 -53 -104 -57 -118 -4 -14 -20 -50 -36 -80 -16
-30 -29 -61 -29 -67 0 -9 19 -13 60 -13 l60 0 26 58 c23 49 27 54 35 37 5 -11
20 -45 33 -77 l25 -56 43 5 c67 7 69 9 58 39 -9 23 -7 29 11 41 18 13 20 22
14 63 -5 39 -4 48 11 54 9 4 18 5 20 4 1 -2 -2 -27 -8 -57 -5 -29 -6 -57 -1
-62 4 -4 28 -9 53 -11 l45 -3 8 65 c4 36 11 99 16 140 8 63 7 78 -6 92 -21 24
-59 23 -80 -1 -13 -16 -20 -18 -36 -9 -20 10 -127 6 -158 -6 -12 -5 -20 1 -29
23 -7 17 -16 31 -20 31 -5 0 -30 -42 -58 -92z m363 22 c0 -29 -32 -41 -41 -16
-9 24 4 48 23 44 12 -2 18 -12 18 -28z m-236 -144 c62 -150 65 -171 22 -163
-16 2 -22 12 -55 89 -32 75 -54 77 -87 7 -23 -51 -57 -76 -86 -65 -11 4 -11
10 -3 26 6 11 7 20 3 20 -4 0 -1 6 8 13 15 12 43 55 44 68 1 19 80 168 86 161
3 -4 34 -74 68 -156z m142 134 c31 -17 23 -54 -21 -94 -38 -34 -39 -38 -34
-79 5 -35 3 -45 -10 -50 -20 -8 -30 11 -46 88 -7 33 -19 65 -26 71 -7 5 -16
22 -19 36 -5 20 -3 27 12 31 35 9 124 7 144 -3z m86 -117 c-4 -38 -7 -78 -7
-90 0 -19 -6 -23 -30 -23 l-29 0 2 83 c2 86 7 97 46 97 23 0 24 -1 18 -67z"/>
<path d="M1516 305 c-9 -23 -8 -25 9 -25 17 0 19 9 6 28 -7 11 -10 10 -15 -3z"/>
<path d="M1673 334 c-8 -22 5 -30 23 -12 14 14 14 16 -1 21 -9 4 -18 1 -22 -9z"/>
<path d="M696 328 c-17 -10 -22 -53 -7 -62 5 -3 20 9 35 28 23 31 24 34 7 39
-10 2 -26 0 -35 -5z"/>
</g>
</svg>
